<svg id="bookingcom" xmlns="http://www.w3.org/2000/svg" xmlns:xlink="http://www.w3.org/1999/xlink" width="209.249" height="35.506" viewBox="0 0 209.249 35.506">
  <defs>
    <clipPath id="clip-path">
      <path id="Контур_49" data-name="Контур 49" d="M736.875-36.215H946.124V-.709H736.875Z" transform="translate(-736.875 36.215)" fill="#cad43e"/>
    </clipPath>
    <clipPath id="clip-path-2">
      <path id="Контур_48" data-name="Контур 48" d="M736.875-.709H946.124V-36.215H736.875Z" transform="translate(-736.875 36.215)" fill="#cad43e"/>
    </clipPath>
    <clipPath id="clip-path-4">
      <path id="Контур_53" data-name="Контур 53" d="M736.875-35.82h209.2V-1.06h-209.2Z" transform="translate(-736.875 35.82)" fill="#cad43e"/>
    </clipPath>
    <clipPath id="clip-path-5">
      <path id="Контур_52" data-name="Контур 52" d="M736.875-.709H946.124V-36.215H736.875Z" transform="translate(-736.875 36.215)" fill="#054b7d"/>
    </clipPath>
  </defs>
  <g id="Сгруппировать_38" data-name="Сгруппировать 38" transform="translate(0 0)" clip-path="url(#clip-path)">
    <g id="Сгруппировать_37" data-name="Сгруппировать 37" transform="translate(0 0)" clip-path="url(#clip-path-2)">
      <path id="Контур_45" data-name="Контур 45" d="M783.2-32.637a3.18,3.18,0,0,1,3.18-3.18,3.18,3.18,0,0,1,3.18,3.18,3.182,3.182,0,0,1-3.18,3.061,3.182,3.182,0,0,1-3.18-3.061" transform="translate(-701.141 36.523)" fill="#cad43e"/>
      <path id="Контур_46" data-name="Контур 46" d="M811.519-20.66a3.181,3.181,0,0,1,3.173-3.191,3.188,3.188,0,0,1,3.188,3.189,3.188,3.188,0,0,1-3.188,3.189,3.183,3.183,0,0,1-3.173-3.189" transform="translate(-679.294 45.753)" fill="#cad43e"/>
      <path id="Контур_47" data-name="Контур 47" d="M758.092-13.169c-2.737,0-4.641-2.174-4.641-5.283s1.9-5.279,4.643-5.279,4.676,2.172,4.676,5.279C762.771-15.294,760.889-13.169,758.092-13.169Zm0-15.205a9.634,9.634,0,0,0-10,9.922,9.634,9.634,0,0,0,10,9.922,9.651,9.651,0,0,0,10.037-9.92,9.653,9.653,0,0,0-10.035-9.924m46.023,10.42a4.732,4.732,0,0,0-.757-1.069l-.177-.184.186-.177a7.958,7.958,0,0,0,.8-1l5.115-7.6h-6.209l-3.842,5.945a1.5,1.5,0,0,1-1.313.478h-.875V-32.8c0-2.247-1.4-2.553-2.914-2.553h-2.591l.007,26.529h5.5V-16.78h.516c.627,0,1.052.073,1.249.414l3.034,5.726c.848,1.554,1.692,1.818,3.281,1.818h4.214l-3.14-5.19-2.082-3.941m26.7-10.465a7.481,7.481,0,0,0-5.584,2.3l-.332.337-.12-.458c-.292-1.127-1.284-1.745-2.774-1.745h-2.464l.016,19.16h5.462v-8.831a7.1,7.1,0,0,1,.341-2.3,4.488,4.488,0,0,1,4.422-3.357c1.705,0,2.371.9,2.371,3.226v8.346c0,1.984.919,2.912,2.905,2.912h2.6l-.009-12.187c0-4.84-2.363-7.4-6.833-7.4m-17.3.434h-2.588l.018,14.816v4.344h2.761l.1,0,1.289,0h1.28v-.007h.009L816.4-25.07c0-1.96-.937-2.91-2.874-2.91M779.546-13.169c-2.737,0-4.643-2.174-4.643-5.283s1.907-5.279,4.646-5.279,4.676,2.172,4.676,5.279c0,3.158-1.882,5.283-4.676,5.283Zm0-15.205a9.637,9.637,0,0,0-10,9.922A9.636,9.636,0,0,0,779.549-8.53a9.656,9.656,0,0,0,10.037-9.92,9.658,9.658,0,0,0-10.037-9.924" transform="translate(-728.22 36.881)" fill="#cad43e"/>
    </g>
  </g>
  <g id="Сгруппировать_41" data-name="Сгруппировать 41" transform="translate(0 0)" clip-path="url(#clip-path)">
    <g id="Сгруппировать_40" data-name="Сгруппировать 40" transform="translate(0 0.7)" clip-path="url(#clip-path-4)">
      <g id="Сгруппировать_39" data-name="Сгруппировать 39" transform="translate(0 -0.7)" clip-path="url(#clip-path-5)">
        <path id="Контур_50" data-name="Контур 50" d="M836.3-16.207c-2.737,0-4.646-2.174-4.646-5.283s1.909-5.279,4.646-5.279,4.679,2.172,4.679,5.279C840.978-18.333,839.1-16.207,836.3-16.207Zm0-15.205a9.635,9.635,0,0,0-10,9.922,9.634,9.634,0,0,0,10,9.922,9.655,9.655,0,0,0,10.037-9.92A9.658,9.658,0,0,0,836.3-31.413" transform="translate(-667.893 39.92)" fill="#054b7d"/>
        <path id="Контур_51" data-name="Контур 51" d="M809.341-17.013c-2.987,0-4.05-2.6-4.05-5.046,0-1.076.272-4.581,3.764-4.581,1.734,0,4.043.5,4.043,4.761C813.1-17.857,811.055-17.013,809.341-17.013Zm6.594-14.021a2.372,2.372,0,0,0-2.234,1.169l-.151.292-.252-.221a7.441,7.441,0,0,0-5.029-1.667c-5.108,0-8.547,3.837-8.547,9.543s3.558,9.69,8.649,9.69a6.726,6.726,0,0,0,4.2-1.231l.421-.317v.531c0,2.56-1.654,3.972-4.654,3.972a11.027,11.027,0,0,1-3.676-.678,1.622,1.622,0,0,0-2.305,1.1l-.434,1.072-.613,1.568.379.2a14.937,14.937,0,0,0,6.68,1.627c4.65,0,10.084-2.38,10.084-9.081l.02-17.575h-2.54" transform="translate(-688.393 39.882)" fill="#cad43e"/>
      </g>
    </g>
  </g>
  <g id="Сгруппировать_43" data-name="Сгруппировать 43" transform="translate(0 0)" clip-path="url(#clip-path)">
    <g id="Сгруппировать_42" data-name="Сгруппировать 42" transform="translate(0 0)" clip-path="url(#clip-path-2)">
      <path id="Контур_55" data-name="Контур 55" d="M746.407-13.392l-4.446,0V-18.71c0-1.138.441-1.727,1.413-1.864h3.033A3.327,3.327,0,0,1,749.972-17a3.31,3.31,0,0,1-3.565,3.609Zm-4.446-14.34v-1.4c0-1.224.518-1.807,1.654-1.882h2.276a2.869,2.869,0,0,1,3.12,3.122,2.961,2.961,0,0,1-3.049,3.226h-4Zm10.124,5.305-.8-.452.7-.6a6.417,6.417,0,0,0,2.183-5c0-4.172-3.233-6.864-8.239-6.864h-6.364a2.79,2.79,0,0,0-2.688,2.755V-8.921h9.165c5.564,0,9.156-3.029,9.156-7.721a6.445,6.445,0,0,0-3.111-5.784" transform="translate(-736.875 36.885)" fill="#cad43e"/>
      <path id="Контур_56" data-name="Контур 56" d="M878.978-31.4a7.528,7.528,0,0,0-5.863,2.841l-.394.5-.31-.56a5.443,5.443,0,0,0-5.175-2.781,6.933,6.933,0,0,0-5.033,2.259l-.518.56-.2-.737c-.288-1.063-1.233-1.645-2.664-1.645h-2.3L856.5-11.878h5.214V-20.3a9.428,9.428,0,0,1,.277-2.232c.5-2.037,1.867-4.227,4.167-4.008,1.417.137,2.112,1.233,2.112,3.35v11.315h5.252V-20.3a7.646,7.646,0,0,1,.294-2.305c.421-1.944,1.851-3.937,4.07-3.937,1.608,0,2.2.908,2.2,3.352v8.525c0,1.926.859,2.79,2.788,2.79h2.453l0-12.185c0-4.869-2.143-7.338-6.359-7.338m-47.461,12.9a8.052,8.052,0,0,1-5.214,2.385,5.1,5.1,0,0,1-5.412-5.339c0-3.184,2.108-5.409,5.128-5.409.979,0,2.095.35,2.27.941l.024.1a1.918,1.918,0,0,0,1.86,1.41l2.856,0v-2.5c0-3.295-4.192-4.491-7.01-4.491-6.032,0-10.407,4.2-10.407,9.982s4.327,9.973,10.3,9.973a10.827,10.827,0,0,0,8.02-3.437l.151-.186-2.263-3.753-.3.317" transform="translate(-676.136 39.928)" fill="#054b7d"/>
    </g>
  </g>
</svg>
