<svg id="Иконка_место" data-name="Иконка место" xmlns="http://www.w3.org/2000/svg" width="34" height="34" viewBox="0 0 34 34">
  <path id="Контур_21" data-name="Контур 21" d="M20.875,17.225A.958.958,0,0,1,20.253,17c-.235-.2-5.753-4.978-5.753-9.891a6.375,6.375,0,1,1,12.75,0c0,4.912-5.518,9.69-5.753,9.891A.958.958,0,0,1,20.875,17.225Z" transform="translate(6.042 0.271)" fill="#cad43e"/>
  <path id="Контур_22" data-name="Контур 22" d="M19.675,7.97a2.295,2.295,0,1,1,2.3-2.3A2.3,2.3,0,0,1,19.675,7.97Z" transform="translate(7.242 1.408)" fill="#00605b"/>
  <path id="Контур_23" data-name="Контур 23" d="M8.146,16.292H1.063a1.063,1.063,0,1,1,0-2.125H7.083V1.063a1.062,1.062,0,1,1,2.125,0V15.229A1.063,1.063,0,0,1,8.146,16.292Z" fill="#292929"/>
  <path id="Контур_24" data-name="Контур 24" d="M29.813,21.958H8.563A1.063,1.063,0,0,1,7.5,20.9V1.063a1.063,1.063,0,0,1,2.125,0V19.833H29.813a1.062,1.062,0,0,1,0,2.125Z" transform="translate(3.125)" fill="#292929"/>
  <path id="Контур_25" data-name="Контур 25" d="M8.146,28.792a1.063,1.063,0,0,1-1.062-1.062v-13.1H1.063a1.063,1.063,0,0,1,0-2.125H8.146a1.063,1.063,0,0,1,1.063,1.063V27.729A1.063,1.063,0,0,1,8.146,28.792Z" transform="translate(0 5.208)" fill="#292929"/>
  <path id="Контур_26" data-name="Контур 26" d="M8.563,27.125A1.063,1.063,0,0,1,7.5,26.063v-8.5A1.063,1.063,0,0,1,8.563,16.5h21.25a1.063,1.063,0,0,1,0,2.125H9.625v7.438A1.063,1.063,0,0,1,8.563,27.125Z" transform="translate(3.125 6.875)" fill="#292929"/>
  <path id="Контур_27" data-name="Контур 27" d="M7.312,6.125H3.063A1.063,1.063,0,0,1,3.063,4h4.25a1.063,1.063,0,1,1,0,2.125Z" transform="translate(0.833 1.667)" fill="#292929"/>
  <path id="Контур_28" data-name="Контур 28" d="M17.6,24.292H14.063A1.063,1.063,0,0,1,13,23.229V17.563a1.063,1.063,0,0,1,2.125,0v4.6H17.6a1.063,1.063,0,0,1,0,2.125Z" transform="translate(5.417 6.875)" fill="#292929"/>
  <path id="Контур_29" data-name="Контур 29" d="M16,10.625H8.563a1.063,1.063,0,1,1,0-2.125H16a1.063,1.063,0,0,1,0,2.125Z" transform="translate(3.125 3.542)" fill="#292929"/>
  <path id="Контур_30" data-name="Контур 30" d="M3.063,18.875A1.063,1.063,0,0,1,2,17.812v-4.25a1.062,1.062,0,1,1,2.125,0v4.25A1.063,1.063,0,0,1,3.063,18.875Z" transform="translate(0.833 5.208)" fill="#292929"/>
  <path id="Контур_31" data-name="Контур 31" d="M21.083,18.417a1.057,1.057,0,0,1-.69-.255C20.131,17.938,14,12.63,14,7.171a7.084,7.084,0,1,1,14.167,0c0,5.458-6.131,10.767-6.393,10.99A1.057,1.057,0,0,1,21.083,18.417Zm0-16.292a5.008,5.008,0,0,0-4.958,5.046c0,3.516,3.451,7.263,4.958,8.732,1.507-1.469,4.958-5.216,4.958-8.732a5.008,5.008,0,0,0-4.958-5.046Z" transform="translate(5.833)" fill="#292929"/>
  <path id="Контур_32" data-name="Контур 32" d="M19.833,8.667a2.833,2.833,0,1,1,2.833-2.833A2.836,2.836,0,0,1,19.833,8.667Zm0-3.542a.708.708,0,1,0,.708.708A.71.71,0,0,0,19.833,5.125Z" transform="translate(7.083 1.25)" fill="#292929"/>
</svg>
