<svg id="mail" xmlns="http://www.w3.org/2000/svg" width="34.132" height="22.754" viewBox="0 0 34.132 22.754">
  <g id="Сгруппировать_6" data-name="Сгруппировать 6" transform="translate(0 0)">
    <path id="Контур_20" data-name="Контур 20" d="M32.381,85.333H1.75A1.755,1.755,0,0,0,0,87.083v19.254a1.756,1.756,0,0,0,1.75,1.75H32.381a1.756,1.756,0,0,0,1.75-1.75V87.083A1.756,1.756,0,0,0,32.381,85.333Zm-.657,1.313L18.073,96.885a1.83,1.83,0,0,1-2.014,0L2.407,86.646ZM24.432,97.561l7.439,9.189c.007.009.017.016.025.025H2.236c.008-.009.017-.015.025-.025L9.7,97.561a.657.657,0,0,0-1.02-.826l-7.366,9.1V87.466L15.272,97.935a3.133,3.133,0,0,0,3.588,0L32.819,87.466v18.368l-7.366-9.1a.656.656,0,0,0-1.02.826Z" transform="translate(0 -85.333)" fill="#cad43e"/>
  </g>
</svg>
