<svg id="iconfinder_mastercard_1933703" xmlns="http://www.w3.org/2000/svg" xmlns:xlink="http://www.w3.org/1999/xlink" width="48.843" height="37.929" viewBox="0 0 48.843 37.929">
  <defs>
    <clipPath id="clip-path">
      <path id="Контур_41" data-name="Контур 41" d="M52.233,89.059V86.5a1.5,1.5,0,0,0-1.549-1.617,1.523,1.523,0,0,0-1.415.741,1.476,1.476,0,0,0-1.347-.741,1.432,1.432,0,0,0-1.213.606v-.472H45.9v4.042h.808V86.768a.974.974,0,0,1,1.011-1.078c.606,0,.876.4.876,1.078v2.291H49.4V86.768a.974.974,0,0,1,1.011-1.078c.606,0,.943.4.943,1.078v2.291ZM65.3,85.017H63.82V83.8h-.808v1.213h-.876v.741h.876v1.886c0,.943.337,1.482,1.347,1.482a1.864,1.864,0,0,0,1.078-.337l-.269-.741a1.756,1.756,0,0,1-.741.2c-.4,0-.606-.269-.606-.674V85.691H65.3Zm7.478-.067a1.143,1.143,0,0,0-1.078.606v-.472h-.808v4.042H71.7V86.836c0-.674.337-1.078.876-1.078a.81.81,0,0,1,.539.135l.269-.741A.814.814,0,0,0,72.78,84.949Zm-11.318.4a3.031,3.031,0,0,0-1.617-.4c-1.011,0-1.617.472-1.617,1.28,0,.674.472,1.078,1.347,1.145l.4.067c.472.067.741.2.741.472,0,.337-.337.539-.943.539a2.458,2.458,0,0,1-1.347-.4l-.4.606a3.262,3.262,0,0,0,1.752.539c1.145,0,1.819-.539,1.819-1.28,0-.674-.472-1.078-1.347-1.213l-.4-.067c-.4-.067-.741-.135-.741-.4s.337-.472.808-.472a2.927,2.927,0,0,1,1.28.337Zm12.194,1.684a1.98,1.98,0,0,0,2.088,2.088,2,2,0,0,0,1.415-.472l-.4-.606a2.036,2.036,0,0,1-1.078.337,1.355,1.355,0,0,1,0-2.695,2.036,2.036,0,0,1,1.078.337l.4-.606a2,2,0,0,0-1.415-.472A1.98,1.98,0,0,0,73.656,87.038ZM68,84.949a1.949,1.949,0,0,0-1.954,2.088,1.928,1.928,0,0,0,2.021,2.088,2.352,2.352,0,0,0,1.617-.539l-.4-.606a1.829,1.829,0,0,1-1.145.4,1.166,1.166,0,0,1-1.213-1.011h3.032v-.337A1.949,1.949,0,0,0,68,84.949Zm0,.741A1.049,1.049,0,0,1,69.075,86.7H66.919A1.049,1.049,0,0,1,68,85.691ZM57.151,87.038V85.017h-.808v.472a1.668,1.668,0,0,0-1.28-.606,1.949,1.949,0,0,0-1.954,2.088,1.989,1.989,0,0,0,1.954,2.088,1.48,1.48,0,0,0,1.28-.606v.472h.808Zm-3.3,0a1.256,1.256,0,0,1,1.28-1.347,1.242,1.242,0,0,1,1.213,1.347,1.207,1.207,0,0,1-1.213,1.347A1.3,1.3,0,0,1,53.85,87.038Zm31.057-2.088a1.143,1.143,0,0,0-1.078.606v-.472h-.808v4.042h.808V86.836c0-.674.337-1.078.876-1.078a.81.81,0,0,1,.539.135l.269-.741A.814.814,0,0,0,84.907,84.949Zm6.467,3.5h.135c.067,0,.067.067.135.067.067.067.067.067.067.135v.269c0,.067-.067.067-.067.135-.067.067-.067.067-.135.067H91.24c-.067,0-.067-.067-.135-.067-.067-.067-.067-.067-.067-.135v-.269c0-.067.067-.067.067-.135.067-.067.067-.067.135-.067Zm0,.741h.135a.066.066,0,0,0,.067-.067l.067-.067V88.79a.066.066,0,0,0-.067-.067l-.067-.067H91.24a.066.066,0,0,0-.067.067l-.067.067v.269a.066.066,0,0,0,.067.067l.067.067Zm0-.539h.135l.067.067v.067a.066.066,0,0,0-.067.067l.135.135h-.067l-.135-.135h-.067v.135h-.067v-.4h.067Zm-.067.067h0l.135.067v-.135l-.135.067Zm-9.5-1.684V85.017H81v.472a1.668,1.668,0,0,0-1.28-.606,1.949,1.949,0,0,0-1.954,2.088,1.989,1.989,0,0,0,1.954,2.088A1.48,1.48,0,0,0,81,88.453v.472h.808Zm-3.234,0a1.256,1.256,0,0,1,1.28-1.347,1.242,1.242,0,0,1,1.213,1.347,1.207,1.207,0,0,1-1.213,1.347A1.256,1.256,0,0,1,78.574,87.038Zm11.318,0V83.4h-.808v2.088a1.668,1.668,0,0,0-1.28-.606,1.949,1.949,0,0,0-1.954,2.088A1.989,1.989,0,0,0,87.8,89.059a1.48,1.48,0,0,0,1.28-.606v.472h.808Zm-3.234,0a1.256,1.256,0,0,1,1.28-1.347,1.242,1.242,0,0,1,1.213,1.347,1.207,1.207,0,0,1-1.213,1.347A1.256,1.256,0,0,1,86.659,87.038Z" transform="translate(-45.9 -83.4)"/>
    </clipPath>
    <clipPath id="clip-path-2">
      <rect id="Прямоугольник_50" data-name="Прямоугольник 50" width="14.552" height="23.781" fill="#59500f"/>
    </clipPath>
    <clipPath id="clip-path-3">
      <path id="Контур_42" data-name="Контур 42" d="M47.994,50.791A15.04,15.04,0,0,0,42.2,38.934a15.1,15.1,0,1,1,9.364,26.948A15.306,15.306,0,0,1,42.2,62.648a14.94,14.94,0,0,0,5.794-11.857" transform="translate(-42.2 -35.7)" fill="#002c2a"/>
    </clipPath>
    <clipPath id="clip-path-4">
      <path id="Контур_43" data-name="Контур 43" d="M112.469,71.706v-.472h.2v-.067H112.2v.067h.2l.067.472Zm.943,0V71.1h-.135l-.2.4-.2-.4h-.135v.606h.135v-.472l.135.4h.135l.135-.4v.472Z" transform="translate(-112.2 -71.1)"/>
    </clipPath>
    <clipPath id="clip-path-5">
      <path id="Контур_44" data-name="Контур 44" d="M78.4,50.791A15.066,15.066,0,0,0,93.491,65.881a15.306,15.306,0,0,0,9.364-3.234,15.03,15.03,0,0,1,0-23.714A15.113,15.113,0,0,0,78.4,50.791" transform="translate(-78.4 -35.7)" fill="#cad43e"/>
    </clipPath>
  </defs>
  <g id="Сгруппировать_24" data-name="Сгруппировать 24" transform="translate(2.493 32.135)">
    <g id="Сгруппировать_23" data-name="Сгруппировать 23">
      <g id="Сгруппировать_22" data-name="Сгруппировать 22" clip-path="url(#clip-path)">
        <rect id="Прямоугольник_48" data-name="Прямоугольник 48" width="52.616" height="12.598" transform="translate(-3.368 -3.368)" fill="#fff"/>
      </g>
    </g>
  </g>
  <g id="Сгруппировать_27" data-name="Сгруппировать 27" transform="translate(17.179 3.234)" opacity="0.71">
    <g id="Сгруппировать_26" data-name="Сгруппировать 26" transform="translate(0 0)">
      <g id="Сгруппировать_25" data-name="Сгруппировать 25" transform="translate(0 0)" clip-path="url(#clip-path-2)">
        <rect id="Прямоугольник_49" data-name="Прямоугольник 49" width="21.289" height="30.518" transform="translate(-3.368 -3.368)" fill="#59500f"/>
      </g>
    </g>
  </g>
  <g id="Сгруппировать_30" data-name="Сгруппировать 30" transform="translate(24.388 0)">
    <g id="Сгруппировать_29" data-name="Сгруппировать 29">
      <g id="Сгруппировать_28" data-name="Сгруппировать 28" clip-path="url(#clip-path-3)">
        <rect id="Прямоугольник_51" data-name="Прямоугольник 51" width="31.192" height="36.986" transform="translate(-3.301 -3.368)" fill="#002c2a"/>
      </g>
    </g>
  </g>
  <g id="Сгруппировать_33" data-name="Сгруппировать 33" transform="translate(47.159 23.849)">
    <g id="Сгруппировать_32" data-name="Сгруппировать 32">
      <g id="Сгруппировать_31" data-name="Сгруппировать 31" clip-path="url(#clip-path-4)">
        <rect id="Прямоугольник_52" data-name="Прямоугольник 52" width="8.017" height="7.343" transform="translate(-3.436 -3.368)" fill="#f79e1b"/>
      </g>
    </g>
  </g>
  <g id="Сгруппировать_36" data-name="Сгруппировать 36" transform="translate(0 0)">
    <g id="Сгруппировать_35" data-name="Сгруппировать 35">
      <g id="Сгруппировать_34" data-name="Сгруппировать 34" clip-path="url(#clip-path-5)">
        <rect id="Прямоугольник_53" data-name="Прямоугольник 53" width="31.192" height="36.986" transform="translate(-3.368 -3.368)" fill="#cad43e"/>
      </g>
    </g>
  </g>
</svg>
