<svg id="Smartphone" xmlns="http://www.w3.org/2000/svg" width="20.288" height="36.996" viewBox="0 0 20.288 36.996">
  <path id="Контур_17" data-name="Контур 17" d="M137.3,8H122.984A2.987,2.987,0,0,0,120,10.984V42.013A2.987,2.987,0,0,0,122.984,45H137.3a2.987,2.987,0,0,0,2.984-2.984V10.984A2.987,2.987,0,0,0,137.3,8ZM134.19,9.193l-.358,1.79h-7.376l-.358-1.79Zm4.9,32.819a1.792,1.792,0,0,1-1.79,1.79H122.984a1.792,1.792,0,0,1-1.79-1.79V10.984a1.792,1.792,0,0,1,1.79-1.79h1.9l.5,2.5a.6.6,0,0,0,.585.48h8.354a.6.6,0,0,0,.585-.48l.5-2.5h1.9a1.792,1.792,0,0,1,1.79,1.79Z" transform="translate(-120 -8)" fill="#cad43e"/>
  <path id="Контур_18" data-name="Контур 18" d="M156.177,456H152.6a.6.6,0,1,0,0,1.193h3.58a.6.6,0,1,0,0-1.193Z" transform="translate(-149.613 -422.584)" fill="#cad43e"/>
  <path id="Контур_19" data-name="Контур 19" d="M225.193,456h-.6a.6.6,0,0,0,0,1.193h.6a.6.6,0,0,0,0-1.193Z" transform="translate(-216.243 -422.584)" fill="#cad43e"/>
</svg>
