<svg id="tripadvisor" xmlns="http://www.w3.org/2000/svg" width="210" height="43.105" viewBox="0 0 210 43.105">
  <g id="Сгруппировать_45" data-name="Сгруппировать 45" transform="translate(14.228 20.589)">
    <g id="Сгруппировать_44" data-name="Сгруппировать 44">
      <path id="Контур_59" data-name="Контур 59" d="M107.14,249.023a4.144,4.144,0,1,0,4.144,4.144A4.149,4.149,0,0,0,107.14,249.023Zm0,5.526a1.381,1.381,0,1,1,1.381-1.381A1.383,1.383,0,0,1,107.14,254.549Z" transform="translate(-102.996 -249.023)" fill="#cad43e"/>
    </g>
  </g>
  <g id="Сгруппировать_47" data-name="Сгруппировать 47" transform="translate(9.255 15.616)">
    <g id="Сгруппировать_46" data-name="Сгруппировать 46">
      <path id="Контур_60" data-name="Контур 60" d="M76.115,213.025a9.117,9.117,0,1,0,9.117,9.117A9.127,9.127,0,0,0,76.115,213.025Zm0,15.471a6.354,6.354,0,1,1,6.354-6.354A6.361,6.361,0,0,1,76.115,228.5Z" transform="translate(-66.998 -213.025)" fill="#cad43e"/>
    </g>
  </g>
  <g id="Сгруппировать_49" data-name="Сгруппировать 49" transform="translate(48.209 20.589)">
    <g id="Сгруппировать_48" data-name="Сгруппировать 48">
      <path id="Контур_61" data-name="Контур 61" d="M353.13,249.023a4.144,4.144,0,1,0,4.144,4.144A4.149,4.149,0,0,0,353.13,249.023Zm0,5.526a1.381,1.381,0,1,1,1.381-1.381A1.383,1.383,0,0,1,353.13,254.549Z" transform="translate(-348.986 -249.023)" fill="#cad43e"/>
    </g>
  </g>
  <g id="Сгруппировать_51" data-name="Сгруппировать 51" transform="translate(43.237 15.616)">
    <g id="Сгруппировать_50" data-name="Сгруппировать 50">
      <path id="Контур_62" data-name="Контур 62" d="M322.1,213.025a9.117,9.117,0,1,0,9.117,9.117A9.127,9.127,0,0,0,322.1,213.025Zm0,15.471a6.354,6.354,0,1,1,6.354-6.354A6.362,6.362,0,0,1,322.1,228.5Z" transform="translate(-312.988 -213.025)" fill="#cad43e"/>
    </g>
  </g>
  <g id="Сгруппировать_53" data-name="Сгруппировать 53" transform="translate(62.987 35.243)">
    <g id="Сгруппировать_52" data-name="Сгруппировать 52">
      <path id="Контур_63" data-name="Контур 63" d="M458.427,355.5a1.382,1.382,0,0,0-1.953.02l-.112.113a1.381,1.381,0,0,0,1.954,1.954l.131-.133A1.382,1.382,0,0,0,458.427,355.5Z" transform="translate(-455.957 -355.106)" fill="#cad43e"/>
    </g>
  </g>
  <g id="Сгруппировать_55" data-name="Сгруппировать 55" transform="translate(0 0.423)">
    <g id="Сгруппировать_54" data-name="Сгруппировать 54">
      <path id="Контур_64" data-name="Контур 64" d="M70.432,124.069a18.236,18.236,0,0,0-3.128-7.4l3.214-5.168a1.381,1.381,0,0,0-1.173-2.111H56.687A34.093,34.093,0,0,0,41.2,103.058a1.381,1.381,0,0,0-.415,2.732,32.83,32.83,0,0,1,10.152,3.245,18.418,18.418,0,0,0-15.579,11.318,18.413,18.413,0,0,0-15.568-11.318,32.831,32.831,0,0,1,10.15-3.244,1.381,1.381,0,1,0-.415-2.732,34.094,34.094,0,0,0-15.485,6.336H1.381a1.381,1.381,0,0,0-1.173,2.111l3.218,5.175A18.363,18.363,0,0,0,31.57,140.12l2.666,3.94a1.381,1.381,0,0,0,2.288,0l2.647-3.912c.063.065.126.131.191.2a18.429,18.429,0,0,0,20.724,3.679,1.381,1.381,0,1,0-1.162-2.506,15.666,15.666,0,0,1-17.608-3.127,15.894,15.894,0,0,1-1.144-1.275,1.378,1.378,0,0,0-.135-.168,15.611,15.611,0,0,1,23.354-20.631,15.963,15.963,0,0,1,1.144,1.275c.021.027.042.054.065.079a15.513,15.513,0,0,1,2.068,15.919,1.381,1.381,0,1,0,2.533,1.1A18.344,18.344,0,0,0,70.432,124.069ZM8.056,112.158a18.515,18.515,0,0,0-2.759,2.3l-1.431-2.3Zm10.316,30.8a15.609,15.609,0,1,1,15.609-15.609A15.627,15.627,0,0,1,18.372,142.962Zm18.96-5.025-1.951,2.884L33.4,137.9a18.352,18.352,0,0,0,1.952-3.549A18.194,18.194,0,0,0,37.332,137.937Zm28.1-23.485-.087-.09a18.564,18.564,0,0,0-2.657-2.2h4.171Z" transform="translate(0 -103.043)" fill="#cad43e"/>
    </g>
  </g>
  <g id="Сгруппировать_57" data-name="Сгруппировать 57" transform="translate(33.981 0)">
    <g id="Сгруппировать_56" data-name="Сгруппировать 56">
      <path id="Контур_65" data-name="Контур 65" d="M247.459,99.982h-.087a1.381,1.381,0,1,0,0,2.763h.081a1.381,1.381,0,0,0,.007-2.763Z" transform="translate(-245.99 -99.982)" fill="#cad43e"/>
    </g>
  </g>
  <text id="Tripadvisor-2" data-name="Tripadvisor" transform="translate(148 30.825)" fill="#cad43e" font-size="25" font-family="PTSans-Bold, PT Sans" font-weight="700" letter-spacing="0.02em"><tspan x="-61.425" y="0">Tripadvisor</tspan></text>
</svg>
