<svg id="symbols" xmlns="http://www.w3.org/2000/svg" width="69.734" height="21.467" viewBox="0 0 69.734 21.467">
  <g id="Сгруппировать_9" data-name="Сгруппировать 9" transform="translate(24.378 0.357)">
    <g id="Сгруппировать_8" data-name="Сгруппировать 8">
      <path id="Контур_34" data-name="Контур 34" d="M20.266,16.8,16.722,37.6H22.39l3.547-20.8Z" transform="translate(-16.722 -16.799)" fill="#cad43e"/>
    </g>
  </g>
  <g id="Сгруппировать_11" data-name="Сгруппировать 11" transform="translate(5.63 0.376)">
    <g id="Сгруппировать_10" data-name="Сгруппировать 10">
      <path id="Контур_35" data-name="Контур 35" d="M17.857,16.816,12.306,31l-.592-2.142a22.252,22.252,0,0,0-7.852-8.622L8.938,37.58l6-.01,8.926-20.758Z" transform="translate(-3.862 -16.812)" fill="#cad43e"/>
    </g>
  </g>
  <g id="Сгруппировать_13" data-name="Сгруппировать 13" transform="translate(0 0.179)">
    <g id="Сгруппировать_12" data-name="Сгруппировать 12">
      <path id="Контур_36" data-name="Контур 36" d="M11.33,18.367a2.281,2.281,0,0,0-2.47-1.69H.073L0,17.091c6.839,1.659,11.364,5.656,13.242,10.463Z" transform="translate(0 -16.677)" fill="#cad43e"/>
    </g>
  </g>
  <g id="Сгруппировать_15" data-name="Сгруппировать 15" transform="translate(33.593)">
    <g id="Сгруппировать_14" data-name="Сгруппировать 14">
      <path id="Контур_37" data-name="Контур 37" d="M34.531,20.9a10.464,10.464,0,0,1,4.242.8l.512.241.767-4.508a14.631,14.631,0,0,0-5.078-.873c-5.6,0-9.549,2.821-9.579,6.864-.036,2.987,2.812,4.655,4.964,5.651,2.209,1.02,2.949,1.669,2.939,2.58-.017,1.392-1.761,2.031-3.389,2.031a11.9,11.9,0,0,1-5.337-1.089l-.73-.332-.8,4.655a17.951,17.951,0,0,0,6.315,1.108c5.958,0,9.83-2.787,9.871-7.107.025-2.363-1.487-4.167-4.763-5.646-1.983-.965-3.2-1.607-3.184-2.58C31.283,21.823,32.312,20.9,34.531,20.9Z" transform="translate(-23.043 -16.554)" fill="#cad43e"/>
    </g>
  </g>
  <g id="Сгруппировать_17" data-name="Сгруппировать 17" transform="translate(49.383 0.38)">
    <g id="Сгруппировать_16" data-name="Сгруппировать 16">
      <path id="Контур_38" data-name="Контур 38" d="M49.639,16.815H45.26a2.82,2.82,0,0,0-2.97,1.726L33.874,37.6h5.952s.971-2.563,1.191-3.124l7.259.009c.169.726.691,3.115.691,3.115h5.258Zm-6.99,13.4c.467-1.194,2.258-5.812,2.258-5.812-.031.057.462-1.2.755-1.986l.382,1.793,1.314,6Z" transform="translate(-33.874 -16.815)" fill="#cad43e"/>
    </g>
  </g>
</svg>
